<svg data-v-fde0c5aa="" xmlns="http://www.w3.org/2000/svg" viewBox="0 0 300 300" class="iconAboveSlogan"><!----><defs data-v-fde0c5aa=""><!----></defs><rect data-v-fde0c5aa="" fill="transparent" x="0" y="0" width="300px" height="300px" class="logo-background-square"></rect><defs data-v-fde0c5aa=""><!----></defs><g data-v-fde0c5aa="" id="8edc6a54-4710-4dd3-b888-daba81f18f1a" fill="#000000" transform="matrix(2.7045364379882812,0,0,2.7045364379882812,19.390866699621178,157.72274009312008)"><path d="M3.82 7.84L3.82 7.84L5.18 7.84C5.45 7.84 5.67 7.63 5.67 7.36C5.67 7.29 5.66 7.24 5.63 7.18L4.94 5.50C4.84 5.28 4.58 5.17 4.33 5.26C4.10 5.35 3.99 5.63 4.07 5.87L4.49 6.90L3.82 6.90C3.57 6.90 3.36 7.10 3.36 7.36C3.36 7.63 3.57 7.84 3.82 7.84ZM3.14 10.26L3.14 10.26L3.37 9.72L5.64 9.72L5.87 10.26C5.96 10.51 6.24 10.61 6.48 10.53C6.72 10.42 6.82 10.15 6.73 9.91L6.40 9.10C6.34 8.92 6.16 8.76 5.95 8.76L3.05 8.76L3.05 8.76C2.88 8.76 2.70 8.89 2.62 9.06L2.28 9.91C2.18 10.15 2.30 10.42 2.53 10.53C2.79 10.61 3.05 10.50 3.14 10.26ZM1.13 10.26L1.13 10.26L4.51 1.76L7.88 10.26C7.98 10.50 8.26 10.61 8.50 10.53C8.74 10.42 8.85 10.15 8.75 9.91L4.94 0.36C4.90 0.25 4.82 0.14 4.68 0.10C4.45 0 4.17 0.11 4.07 0.36L0.25 9.91C0.17 10.15 0.29 10.42 0.52 10.53C0.76 10.61 1.02 10.50 1.13 10.26ZM14.18 5.03L14.18 5.03C16.06 5.03 16.06 2.23 14.18 2.23L12.53 2.23C11.91 2.23 11.91 3.16 12.53 3.16L14.18 3.16C14.83 3.16 14.83 4.10 14.18 4.10C13.82 4.10 13.19 3.99 13.19 4.56C13.19 5.12 13.82 5.03 14.18 5.03ZM11.13 10.16L11.13 10.16L11.13 1.29L14.35 1.29C17.36 1.29 17.36 5.96 14.35 5.96L12.53 5.96C12.28 5.96 12.05 6.17 12.05 6.43L12.05 10.16C12.05 10.78 13.01 10.78 13.01 10.16L13.01 6.90L14.35 6.90C18.58 6.90 18.59 0.36 14.35 0.36L10.65 0.36C10.40 0.36 10.19 0.56 10.19 0.84L10.19 10.16C10.19 10.78 11.13 10.78 11.13 10.16ZM23.10 5.03L23.10 5.03C24.98 5.03 24.98 2.23 23.10 2.23L21.45 2.23C20.83 2.23 20.83 3.16 21.45 3.16L23.10 3.16C23.74 3.16 23.74 4.10 23.10 4.10C22.74 4.10 22.11 3.99 22.11 4.56C22.11 5.12 22.74 5.03 23.10 5.03ZM20.05 10.16L20.05 10.16L20.05 1.29L23.27 1.29C26.28 1.29 26.28 5.96 23.27 5.96L21.45 5.96C21.20 5.96 20.97 6.17 20.97 6.43L20.97 10.16C20.97 10.78 21.92 10.78 21.92 10.16L21.92 6.90L23.27 6.90C27.50 6.90 27.51 0.36 23.27 0.36L19.57 0.36C19.32 0.36 19.11 0.56 19.11 0.84L19.11 10.16C19.11 10.78 20.05 10.78 20.05 10.16ZM33.28 0.71L33.28 0.71C32.30 0.38 31.61 0.27 30.77 0.31C27.89 0.45 26.66 3.99 28.69 5.77C29.99 6.90 31.37 6.79 31.43 7.45C31.51 8.15 29.62 8.01 28.55 7.22C28.06 6.87 27.51 7.63 28 7.98C28.92 8.65 30.06 8.88 30.97 8.82C31.72 8.76 32.41 8.19 32.37 7.41C32.27 5.92 30.53 6.16 29.32 5.07C28.31 4.20 28.50 2.73 29.26 1.93C30.18 0.91 31.70 1.15 32.96 1.60C33.54 1.81 33.85 0.91 33.28 0.71ZM27.82 9.97L27.82 9.97C28.36 10.26 28.91 10.44 29.39 10.54C32.00 11.17 34.27 9.97 34.27 7.41C34.27 4.80 31.21 4.24 30.69 3.85C30.23 3.49 30.59 2.62 32.70 3.47C33.28 3.71 33.61 2.84 33.07 2.62C29.58 1.20 28.99 3.68 30.11 4.56C30.83 5.14 33.35 5.49 33.35 7.41C33.35 10.00 30.42 10.29 28.27 9.14C27.72 8.86 27.29 9.69 27.82 9.97ZM30.88 7.90L30.88 7.90L30.88 7.90L30.88 7.90ZM36.89 10.18L36.89 10.18L36.89 0.81C36.89 0.56 36.68 0.35 36.41 0.35C36.16 0.35 35.95 0.56 35.95 0.81L35.95 10.18C35.95 10.43 36.16 10.64 36.41 10.64C36.68 10.64 36.89 10.43 36.89 10.18ZM40.82 9.90L40.82 9.90L38.67 6.83C38.42 6.45 37.83 6.64 37.83 7.11L37.83 10.18C37.83 10.43 38.04 10.64 38.29 10.64C38.56 10.64 38.75 10.43 38.75 10.18L38.75 8.58L40.05 10.44C40.21 10.65 40.49 10.70 40.70 10.56C40.92 10.40 40.96 10.12 40.82 9.90ZM40.05 0.55L40.05 0.55L38.75 2.41L38.75 0.81C38.75 0.56 38.56 0.35 38.29 0.35C38.04 0.35 37.83 0.56 37.83 0.81L37.83 3.86C37.83 4.03 37.88 4.17 38.02 4.27C38.23 4.42 38.53 4.37 38.67 4.16L40.82 1.08C40.96 0.87 40.92 0.59 40.70 0.43C40.49 0.28 40.21 0.34 40.05 0.55ZM42.34 0.55L42.34 0.55L39.07 5.22C38.96 5.39 38.96 5.61 39.07 5.77L42.34 10.44C42.49 10.65 42.77 10.70 42.98 10.56C43.20 10.40 43.25 10.12 43.11 9.90L40.03 5.49L43.11 1.08C43.25 0.87 43.20 0.59 42.98 0.43C42.77 0.28 42.49 0.34 42.34 0.55ZM49.81 2.23L49.81 2.23L46.84 2.23C46.58 2.23 46.37 2.42 46.37 2.69L46.37 4.56C46.37 4.82 46.58 5.03 46.84 5.03L48.94 5.03C49.21 5.03 49.42 4.82 49.42 4.56C49.42 4.30 49.21 4.09 48.94 4.09L47.31 4.09L47.31 3.15L49.81 3.15C50.08 3.15 50.29 2.94 50.29 2.69C50.29 2.42 50.08 2.23 49.81 2.23ZM48.94 5.96L48.94 5.96L46.84 5.96C46.58 5.96 46.37 6.17 46.37 6.43L46.37 8.30C46.37 8.55 46.58 8.76 46.84 8.76L49.81 8.76C50.08 8.76 50.29 8.55 50.29 8.30C50.29 8.04 50.08 7.83 49.81 7.83L47.31 7.83L47.31 6.90L48.94 6.90C49.21 6.90 49.42 6.69 49.42 6.43C49.42 6.17 49.21 5.96 48.94 5.96ZM49.81 9.70L49.81 9.70L45.44 9.70L45.44 1.29L49.81 1.29C50.08 1.29 50.29 1.08 50.29 0.81C50.29 0.56 50.08 0.35 49.81 0.35L44.97 0.35C44.72 0.35 44.51 0.56 44.51 0.81L44.51 10.18C44.51 10.43 44.72 10.64 44.97 10.64L49.81 10.64C50.08 10.64 50.29 10.43 50.29 10.18C50.29 9.91 50.08 9.70 49.81 9.70ZM58.09 9.70L58.09 9.70L53.10 9.70L53.10 0.81C53.10 0.56 52.89 0.35 52.64 0.35C52.37 0.35 52.16 0.56 52.16 0.81L52.16 10.18C52.16 10.43 52.37 10.64 52.64 10.64L58.09 10.64C58.35 10.64 58.55 10.43 58.55 10.18C58.55 9.91 58.35 9.70 58.09 9.70ZM54.04 0.81L54.04 0.81L54.04 8.30C54.04 8.55 54.25 8.76 54.50 8.76L58.09 8.76C58.35 8.76 58.55 8.55 58.55 8.30C58.55 8.04 58.35 7.83 58.09 7.83L54.98 7.83L54.98 0.81C54.98 0.56 54.77 0.35 54.50 0.35C54.25 0.35 54.04 0.56 54.04 0.81ZM65.58 2.23L65.58 2.23L62.61 2.23C62.34 2.23 62.13 2.42 62.13 2.69L62.13 4.56C62.13 4.82 62.34 5.03 62.61 5.03L64.71 5.03C64.97 5.03 65.18 4.82 65.18 4.56C65.18 4.30 64.97 4.09 64.71 4.09L63.07 4.09L63.07 3.15L65.58 3.15C65.84 3.15 66.05 2.94 66.05 2.69C66.05 2.42 65.84 2.23 65.58 2.23ZM64.71 5.96L64.71 5.96L62.61 5.96C62.34 5.96 62.13 6.17 62.13 6.43L62.13 8.30C62.13 8.55 62.34 8.76 62.61 8.76L65.58 8.76C65.84 8.76 66.05 8.55 66.05 8.30C66.05 8.04 65.84 7.83 65.58 7.83L63.07 7.83L63.07 6.90L64.71 6.90C64.97 6.90 65.18 6.69 65.18 6.43C65.18 6.17 64.97 5.96 64.71 5.96ZM65.58 9.70L65.58 9.70L61.21 9.70L61.21 1.29L65.58 1.29C65.84 1.29 66.05 1.08 66.05 0.81C66.05 0.56 65.84 0.35 65.58 0.35L60.73 0.35C60.48 0.35 60.27 0.56 60.27 0.81L60.27 10.18C60.27 10.43 60.48 10.64 60.73 10.64L65.58 10.64C65.84 10.64 66.05 10.43 66.05 10.18C66.05 9.91 65.84 9.70 65.58 9.70ZM74.10 2.23L74.10 2.23L71.75 2.23C71.50 2.23 71.29 2.44 71.29 2.70L71.29 10.16C71.29 10.43 71.50 10.64 71.75 10.64C72.02 10.64 72.23 10.43 72.23 10.16L72.23 3.15L74.10 3.15C74.35 3.15 74.55 2.95 74.55 2.70C74.55 2.44 74.35 2.23 74.10 2.23ZM67.56 1.29L67.56 1.29L74.10 1.29C74.35 1.29 74.55 1.08 74.55 0.83C74.55 0.56 74.35 0.36 74.10 0.36L67.56 0.36C67.30 0.36 67.09 0.56 67.09 0.83C67.09 1.08 67.30 1.29 67.56 1.29ZM67.56 3.15L67.56 3.15L69.41 3.15L69.41 10.16C69.41 10.43 69.64 10.64 69.89 10.64C70.15 10.64 70.36 10.43 70.36 10.16L70.36 2.70C70.36 2.44 70.15 2.23 69.89 2.23L67.56 2.23C67.30 2.23 67.09 2.44 67.09 2.70C67.09 2.95 67.30 3.15 67.56 3.15ZM85.89 3.88L85.89 3.88C85.54 2.77 84.84 1.83 83.93 1.16C83.02 0.52 81.93 0.14 80.72 0.14C73.63 0.14 73.63 10.82 80.72 10.82C81.93 10.82 83.02 10.43 83.93 9.79C84.84 9.13 85.54 8.18 85.89 7.08C85.96 6.83 85.83 6.55 85.58 6.48C85.33 6.41 85.05 6.54 84.98 6.79C84.69 7.70 84.13 8.47 83.36 9.02C82.63 9.55 81.72 9.86 80.72 9.86C74.89 9.86 74.89 1.09 80.72 1.09C81.72 1.09 82.63 1.41 83.36 1.93C84.13 2.49 84.69 3.26 84.98 4.16C85.05 4.41 85.33 4.55 85.58 4.47C85.83 4.40 85.96 4.13 85.89 3.88ZM77.84 7.17L77.84 7.17C78.13 7.69 78.55 8.12 79.06 8.43C79.56 8.71 80.14 8.88 80.72 8.88C81.66 8.88 82.50 8.50 83.12 7.87C83.71 7.25 84.08 6.41 84.08 5.47C84.08 4.54 83.71 3.70 83.12 3.08C82.50 2.46 81.66 2.09 80.72 2.09C80.14 2.09 79.56 2.24 79.06 2.53C78.55 2.83 78.13 3.26 77.84 3.78C77.70 4.02 77.78 4.31 78.01 4.44C78.25 4.56 78.53 4.48 78.65 4.24C78.88 3.88 79.18 3.57 79.55 3.36C79.90 3.15 80.29 3.04 80.72 3.04C81.40 3.04 82.00 3.32 82.42 3.75C82.87 4.19 83.13 4.80 83.13 5.47C83.13 6.16 82.87 6.78 82.42 7.21C82.00 7.66 81.40 7.92 80.72 7.92C80.29 7.92 79.88 7.80 79.55 7.59C79.18 7.39 78.88 7.07 78.65 6.71C78.53 6.47 78.25 6.40 78.01 6.52C77.78 6.66 77.70 6.93 77.84 7.17ZM88.72 10.18L88.72 10.18L88.72 0.81C88.72 0.56 88.52 0.36 88.26 0.36C88.00 0.36 87.79 0.56 87.79 0.81L87.79 10.18C87.79 10.43 88.00 10.65 88.26 10.65C88.52 10.65 88.72 10.43 88.72 10.18ZM96.36 10.18L96.36 10.18L96.36 0.81C96.36 0.56 96.15 0.36 95.89 0.36C95.63 0.36 95.42 0.56 95.42 0.81L95.42 10.18C95.42 10.43 95.63 10.65 95.89 10.65C96.15 10.65 96.36 10.43 96.36 10.18ZM94.58 9.91L94.58 9.91L90.51 4.09C90.37 3.86 90.06 3.81 89.87 3.98C89.73 4.06 89.67 4.20 89.67 4.35L89.67 10.18C89.67 10.43 89.87 10.64 90.12 10.64C90.38 10.64 90.59 10.43 90.59 10.18L90.59 5.84L93.81 10.44C93.97 10.65 94.25 10.71 94.47 10.57C94.67 10.40 94.72 10.12 94.58 9.91ZM89.57 1.09L89.57 1.09L93.63 6.92C93.79 7.13 94.07 7.18 94.28 7.03C94.42 6.94 94.49 6.79 94.49 6.64L94.49 0.81C94.49 0.56 94.28 0.36 94.02 0.36C93.77 0.36 93.55 0.56 93.55 0.81L93.55 5.17L90.33 0.56C90.19 0.35 89.89 0.28 89.68 0.45C89.47 0.59 89.42 0.87 89.57 1.09Z"></path></g><defs data-v-fde0c5aa=""><linearGradient data-v-fde0c5aa="" gradientTransform="rotate(25)" id="b5612fb0-5d92-4135-b120-b5ae3940ac74" x1="0%" y1="0%" x2="100%" y2="0%"><stop data-v-fde0c5aa="" offset="0%" stop-color="#8D2CE3" stop-opacity="1"></stop><stop data-v-fde0c5aa="" offset="100%" stop-color="#F7C6F6" stop-opacity="1"></stop></linearGradient></defs><g data-v-fde0c5aa="" id="09f5d507-8b70-47eb-a63b-b6f09688c699" stroke="none" fill="url(#b5612fb0-5d92-4135-b120-b5ae3940ac74)" transform="matrix(0.5765255093574524,0,0,0.5765255093574524,121.17372459273356,88.60040672552505)"><path style="text-indent:0;text-transform:none;block-progression:tb" d="M50 11.031l-1.625 2.813-3.719 6.469-.531.937.531.938 25.75 44.593h-24.75l-.531.938-3.719 6.5L39.781 77H43l41.875.031L88.094 77l-1.625-2.813-34.844-60.343L50 11.03zM43.094 23l-1.625 2.813L6.625 86.186 5 88.97h11.813l.53-.938 25.75-44.594 11.844 20.47.5.937H67.25l-1.625-2.781-20.906-36.25L43.094 23zm-.125 24.125l-1.594 2.813-20.938 36.218-1.625 2.813H95l-1.625-2.813-3.719-6.469-.562-.937H36.53l11.813-20.469.531-.937-.531-.938-3.75-6.468-1.625-2.813z" overflow="visible" color="#000"></path></g><defs data-v-fde0c5aa=""><!----></defs><g data-v-fde0c5aa="" id="834c8b16-e53a-4f0d-a971-d5a9db1d03c3" fill="#000000" transform="matrix(0.636734664440155,0,0,0.636734664440155,52.05428572187617,194.67447582004334)"><path d="M7.81 9.52C7.39 9.11 6.79 8.86 6.01 8.75C6.33 8.67 6.61 8.55 6.86 8.40C7.11 8.25 7.34 8.08 7.50 7.87C7.67 7.66 7.81 7.43 7.90 7.20C7.98 6.96 8.04 6.71 8.04 6.44C8.04 6.05 7.95 5.68 7.83 5.38C7.70 5.07 7.49 4.80 7.22 4.58C6.96 4.37 6.62 4.20 6.20 4.09C5.78 3.98 5.29 3.92 4.73 3.92L1.89 3.92L0.70 3.92L0.70 4.19C0.70 4.34 0.80 4.42 0.98 4.44L1.12 4.44C1.19 4.44 1.29 4.45 1.43 4.45C1.57 4.45 1.72 4.47 1.89 4.47L1.89 13.26C1.72 13.26 1.57 13.27 1.43 13.27C1.29 13.27 1.19 13.29 1.12 13.29L0.98 13.29C0.80 13.30 0.71 13.38 0.71 13.54L0.71 13.82L1.89 13.82L5.10 13.82C5.63 13.82 6.09 13.76 6.51 13.64C6.93 13.51 7.28 13.34 7.56 13.10C7.84 12.87 8.06 12.59 8.22 12.25C8.37 11.91 8.44 11.54 8.44 11.12C8.44 10.46 8.23 9.93 7.81 9.52ZM2.60 4.48L4.73 4.48C5.61 4.48 6.27 4.66 6.69 5.00C7.11 5.35 7.32 5.84 7.32 6.51C7.32 6.76 7.28 7.03 7.18 7.27C7.08 7.50 6.93 7.71 6.72 7.91C6.51 8.11 6.24 8.26 5.92 8.37C5.60 8.48 5.21 8.55 4.75 8.55L2.60 8.55ZM7.06 12.68C6.61 13.06 5.95 13.24 5.08 13.24L2.60 13.24L2.60 9.07L5.10 9.07C5.52 9.07 5.88 9.11 6.20 9.21C6.52 9.31 6.80 9.45 7.03 9.62C7.25 9.80 7.42 10.00 7.55 10.25C7.66 10.50 7.73 10.79 7.73 11.10C7.73 11.79 7.50 12.31 7.06 12.68ZM23.44 13.29L23.37 13.29L23.25 13.29C23.21 13.29 23.14 13.27 23.04 13.27C22.95 13.27 22.83 13.26 22.71 13.26L22.71 6.85L22.04 6.86L21.03 6.86L21.03 7.13C21.03 7.28 21.13 7.36 21.31 7.38L21.38 7.38C21.41 7.38 21.45 7.39 21.49 7.39L21.70 7.39C21.80 7.39 21.91 7.41 22.04 7.41L22.04 12.08C21.73 12.49 21.36 12.81 20.97 13.05C20.58 13.27 20.16 13.40 19.71 13.40C19.10 13.40 18.63 13.20 18.34 12.84C18.05 12.46 17.89 11.96 17.89 11.30L17.89 6.85L17.22 6.86L16.21 6.86L16.21 7.13C16.21 7.28 16.31 7.36 16.49 7.38L16.56 7.38C16.59 7.38 16.63 7.39 16.67 7.39L16.88 7.39C16.98 7.39 17.09 7.41 17.22 7.41L17.22 11.30C17.22 11.70 17.28 12.07 17.37 12.39C17.47 12.71 17.61 12.99 17.81 13.22C18.00 13.44 18.23 13.62 18.52 13.75C18.82 13.87 19.15 13.93 19.54 13.93C20.06 13.93 20.54 13.80 20.96 13.57C21.38 13.33 21.76 13.01 22.08 12.60L22.13 13.64C22.13 13.76 22.22 13.82 22.34 13.82L22.71 13.82L23.72 13.82L23.72 13.54C23.72 13.38 23.62 13.30 23.44 13.29ZM32.91 4.89C32.97 4.94 33.04 4.98 33.11 5.01C33.18 5.04 33.26 5.07 33.35 5.07C33.43 5.07 33.52 5.04 33.59 5.01C33.66 4.98 33.73 4.94 33.78 4.89C33.84 4.83 33.89 4.76 33.92 4.69C33.95 4.62 33.98 4.54 33.98 4.45C33.98 4.37 33.95 4.30 33.92 4.21C33.89 4.14 33.84 4.07 33.78 4.02C33.73 3.96 33.66 3.91 33.59 3.88C33.52 3.85 33.43 3.84 33.35 3.84C33.26 3.84 33.18 3.85 33.11 3.88C33.04 3.91 32.97 3.96 32.91 4.02C32.86 4.07 32.82 4.14 32.79 4.21C32.76 4.28 32.73 4.37 32.73 4.45C32.73 4.54 32.76 4.62 32.79 4.69C32.82 4.76 32.86 4.83 32.91 4.89ZM34.41 13.29L34.34 13.29L34.23 13.29C34.19 13.29 34.12 13.27 34.02 13.27C33.92 13.27 33.81 13.26 33.68 13.26L33.68 6.85L33.01 6.85L32.00 6.85L32.00 7.13C32.00 7.28 32.10 7.36 32.28 7.38L32.35 7.38C32.38 7.38 32.42 7.39 32.47 7.39L32.68 7.39C32.77 7.39 32.89 7.41 33.01 7.41L33.01 13.26C32.86 13.26 32.72 13.29 32.61 13.29L32.37 13.29L32.28 13.29C32.10 13.30 32.00 13.38 32.00 13.54L32.00 13.82L33.01 13.82L33.68 13.82L34.69 13.82L34.69 13.54C34.69 13.38 34.59 13.30 34.41 13.29ZM45.35 13.29L45.28 13.29L45.16 13.29C45.12 13.29 45.05 13.27 44.95 13.27C44.86 13.27 44.74 13.26 44.62 13.26L44.62 3.63L43.95 3.63L42.94 3.63L42.94 3.91C42.94 4.06 43.04 4.14 43.22 4.16L43.29 4.16C43.32 4.16 43.36 4.17 43.40 4.17L43.61 4.17C43.71 4.17 43.82 4.19 43.95 4.19L43.95 13.26C43.79 13.26 43.65 13.29 43.54 13.29L43.30 13.29L43.22 13.29C43.04 13.30 42.94 13.38 42.94 13.54L42.94 13.82L43.95 13.82L44.62 13.82L45.63 13.82L45.63 13.54C45.63 13.38 45.53 13.30 45.35 13.29ZM60.45 13.54C60.45 13.38 60.37 13.30 60.19 13.29L60.12 13.29L60.02 13.29C59.98 13.29 59.91 13.27 59.82 13.27L59.51 13.27L59.51 3.63L58.86 3.63L57.85 3.63L57.85 3.91C57.85 4.06 57.95 4.14 58.13 4.16L58.20 4.16C58.23 4.16 58.25 4.17 58.30 4.17L58.52 4.17C58.62 4.17 58.73 4.19 58.86 4.19L58.86 7.76C58.60 7.42 58.31 7.17 57.96 7.00C57.61 6.82 57.20 6.73 56.73 6.73C56.24 6.73 55.80 6.83 55.43 7.01C55.05 7.20 54.74 7.46 54.47 7.78C54.21 8.11 54.03 8.50 53.89 8.93C53.75 9.37 53.69 9.84 53.69 10.35C53.69 11.54 53.93 12.43 54.40 13.02C54.88 13.61 55.55 13.90 56.41 13.90C56.92 13.90 57.39 13.79 57.81 13.54C58.23 13.29 58.58 12.95 58.88 12.53L58.95 13.64C58.97 13.76 59.04 13.82 59.15 13.82L59.51 13.82L60.45 13.82L60.45 13.61ZM58.86 12.01C58.56 12.43 58.23 12.77 57.85 13.01C57.47 13.24 57.06 13.37 56.60 13.37C55.89 13.37 55.33 13.13 54.95 12.64C54.57 12.15 54.38 11.38 54.38 10.35C54.38 9.88 54.42 9.48 54.53 9.10C54.64 8.72 54.80 8.39 55.01 8.12C55.22 7.85 55.47 7.63 55.78 7.48C56.08 7.32 56.45 7.25 56.85 7.25C57.26 7.25 57.64 7.34 57.96 7.50C58.28 7.67 58.59 7.95 58.86 8.34ZM86.80 12.21C86.77 12.18 86.73 12.15 86.69 12.15C86.66 12.15 86.65 12.15 86.62 12.17C86.60 12.18 86.58 12.21 86.55 12.22C86.35 12.40 86.14 12.56 85.95 12.70C85.75 12.84 85.54 12.94 85.30 13.03C85.06 13.13 84.81 13.20 84.53 13.24C84.25 13.29 83.94 13.31 83.59 13.31C83.03 13.31 82.49 13.22 82.01 13.01C81.52 12.81 81.12 12.52 80.77 12.14C80.42 11.76 80.12 11.28 79.93 10.74C79.73 10.19 79.63 9.56 79.63 8.86C79.63 8.18 79.73 7.56 79.93 7.01C80.14 6.47 80.42 6.01 80.78 5.61C81.14 5.24 81.58 4.94 82.08 4.73C82.59 4.52 83.13 4.42 83.73 4.42C84.63 4.42 85.46 4.56 86.18 4.89C86.23 5.78 86.27 6.30 86.27 6.41C86.28 6.64 86.37 6.75 86.56 6.75L86.90 6.75L86.90 4.51C85.72 4.03 84.66 3.81 83.73 3.81C83.02 3.81 82.38 3.92 81.77 4.17C81.19 4.42 80.65 4.76 80.23 5.21C79.80 5.66 79.48 6.19 79.24 6.80C79.00 7.42 78.89 8.11 78.89 8.86C78.89 9.63 79.02 10.32 79.24 10.95C79.46 11.58 79.79 12.10 80.19 12.54C80.60 12.99 81.09 13.33 81.66 13.57C82.24 13.80 82.85 13.93 83.54 13.93C83.94 13.93 84.32 13.90 84.67 13.83C85.01 13.76 85.33 13.66 85.62 13.54C85.90 13.41 86.17 13.26 86.41 13.09C86.65 12.91 86.87 12.73 87.08 12.50ZM98.32 6.73C97.82 6.73 97.37 6.83 96.98 7.00C96.59 7.17 96.25 7.41 95.97 7.71C95.69 8.02 95.49 8.40 95.35 8.85C95.21 9.30 95.13 9.79 95.13 10.33C95.13 10.88 95.21 11.37 95.35 11.80C95.49 12.24 95.69 12.63 95.97 12.94C96.25 13.24 96.59 13.48 96.98 13.65C97.37 13.82 97.82 13.90 98.32 13.90C98.83 13.90 99.26 13.82 99.65 13.65C100.04 13.48 100.38 13.24 100.65 12.94C100.91 12.63 101.14 12.24 101.28 11.80C101.42 11.37 101.49 10.88 101.49 10.33C101.49 9.79 101.42 9.30 101.28 8.85C101.14 8.40 100.91 8.02 100.65 7.71C100.38 7.41 100.04 7.17 99.65 7.00C99.26 6.83 98.83 6.73 98.32 6.73ZM98.32 13.38C97.90 13.38 97.54 13.31 97.23 13.17C96.92 13.03 96.66 12.82 96.45 12.56C96.24 12.29 96.10 11.97 95.98 11.59C95.87 11.21 95.83 10.79 95.83 10.33C95.83 9.87 95.87 9.45 95.98 9.07C96.10 8.69 96.24 8.37 96.45 8.11C96.66 7.84 96.92 7.62 97.23 7.48C97.54 7.34 97.90 7.27 98.32 7.27C98.74 7.27 99.09 7.34 99.40 7.48C99.71 7.62 99.97 7.84 100.18 8.11C100.39 8.37 100.55 8.69 100.65 9.07C100.74 9.45 100.80 9.87 100.80 10.33C100.80 10.79 100.74 11.21 100.65 11.59C100.55 11.97 100.39 12.29 100.18 12.56C99.97 12.82 99.71 13.03 99.40 13.17C99.09 13.31 98.74 13.38 98.32 13.38ZM112.95 6.73C112.45 6.73 112 6.83 111.61 7.00C111.22 7.17 110.88 7.41 110.60 7.71C110.32 8.02 110.12 8.40 109.98 8.85C109.84 9.30 109.76 9.79 109.76 10.33C109.76 10.88 109.84 11.37 109.98 11.80C110.12 12.24 110.32 12.63 110.60 12.94C110.88 13.24 111.22 13.48 111.61 13.65C112 13.82 112.45 13.90 112.95 13.90C113.46 13.90 113.89 13.82 114.28 13.65C114.67 13.48 115.01 13.24 115.28 12.94C115.54 12.63 115.77 12.24 115.91 11.80C116.05 11.37 116.12 10.88 116.12 10.33C116.12 9.79 116.05 9.30 115.91 8.85C115.77 8.40 115.54 8.02 115.28 7.71C115.01 7.41 114.67 7.17 114.28 7.00C113.89 6.83 113.46 6.73 112.95 6.73ZM112.95 13.38C112.53 13.38 112.17 13.31 111.86 13.17C111.55 13.03 111.29 12.82 111.08 12.56C110.87 12.29 110.73 11.97 110.61 11.59C110.50 11.21 110.46 10.79 110.46 10.33C110.46 9.87 110.50 9.45 110.61 9.07C110.73 8.69 110.87 8.37 111.08 8.11C111.29 7.84 111.55 7.62 111.86 7.48C112.17 7.34 112.53 7.27 112.95 7.27C113.37 7.27 113.72 7.34 114.03 7.48C114.34 7.62 114.60 7.84 114.81 8.11C115.02 8.37 115.18 8.69 115.28 9.07C115.37 9.45 115.43 9.87 115.43 10.33C115.43 10.79 115.37 11.21 115.28 11.59C115.18 11.97 115.02 12.29 114.81 12.56C114.60 12.82 114.34 13.03 114.03 13.17C113.72 13.31 113.37 13.38 112.95 13.38ZM126.74 13.29L126.67 13.29L126.56 13.29C126.52 13.29 126.45 13.27 126.35 13.27C126.25 13.27 126.14 13.26 126.01 13.26L126.01 3.63L125.34 3.63L124.33 3.63L124.33 3.91C124.33 4.06 124.43 4.14 124.61 4.16L124.68 4.16C124.71 4.16 124.75 4.17 124.80 4.17L125.01 4.17C125.10 4.17 125.22 4.19 125.34 4.19L125.34 13.26C125.19 13.26 125.05 13.29 124.94 13.29L124.70 13.29L124.61 13.29C124.43 13.30 124.33 13.38 124.33 13.54L124.33 13.82L125.34 13.82L126.01 13.82L127.02 13.82L127.02 13.54C127.02 13.38 126.92 13.30 126.74 13.29ZM154.92 13.22L154.46 13.17L150.68 3.91L149.97 3.91L146.17 13.17L145.73 13.22C145.54 13.23 145.46 13.33 145.46 13.50L145.46 13.82L145.91 13.82L146.20 13.82L146.45 13.82L146.55 13.82L147.87 13.82L147.87 13.50C147.87 13.31 147.76 13.23 147.55 13.22C147.53 13.22 147.50 13.20 147.46 13.20C147.42 13.20 147.36 13.19 147.27 13.19C147.17 13.19 147.04 13.19 146.90 13.17L147.88 10.75L147.95 10.57L152.68 10.57L152.75 10.75L153.73 13.17C153.59 13.19 153.48 13.19 153.38 13.19C153.29 13.19 153.22 13.20 153.17 13.20C153.13 13.20 153.10 13.22 153.09 13.22C152.88 13.23 152.77 13.31 152.77 13.50L152.77 13.82L154.08 13.82L154.18 13.82L154.45 13.82L154.73 13.82L155.19 13.82L155.19 13.50C155.19 13.33 155.11 13.23 154.92 13.22ZM150.12 5.22C150.15 5.14 150.19 5.04 150.22 4.94C150.25 4.84 150.29 4.75 150.32 4.63C150.35 4.75 150.39 4.84 150.42 4.94C150.44 5.04 150.49 5.12 150.51 5.21L152.47 10.04L148.18 10.04ZM169.13 7.63C168.66 7.04 167.99 6.73 167.13 6.73C166.61 6.73 166.17 6.86 165.75 7.11C165.34 7.36 164.98 7.69 164.67 8.11L164.60 7.03C164.60 6.96 164.58 6.92 164.54 6.89C164.50 6.86 164.44 6.86 164.39 6.86L164.02 6.86L163.02 6.86L163.02 7.13C163.02 7.28 163.11 7.36 163.30 7.38L163.37 7.38C163.39 7.38 163.44 7.39 163.48 7.39L163.69 7.39C163.79 7.39 163.90 7.41 164.02 7.41L164.02 15.72C163.87 15.72 163.73 15.75 163.62 15.75L163.38 15.75L163.30 15.75C163.11 15.76 163.02 15.85 163.02 16.00L163.02 16.28L164.02 16.28L164.70 16.28L165.70 16.28L165.70 16.00C165.70 15.85 165.61 15.76 165.42 15.75L165.35 15.75L165.24 15.75C165.20 15.75 165.13 15.74 165.03 15.74C164.93 15.74 164.82 15.72 164.70 15.72L164.70 12.88C164.95 13.22 165.24 13.48 165.59 13.65C165.94 13.82 166.35 13.90 166.82 13.90C167.31 13.90 167.73 13.80 168.11 13.62C168.49 13.44 168.81 13.19 169.06 12.87C169.32 12.54 169.53 12.15 169.65 11.72C169.79 11.28 169.85 10.79 169.85 10.29C169.85 9.10 169.61 8.22 169.13 7.63ZM169.01 11.55C168.91 11.93 168.74 12.25 168.53 12.53C168.32 12.81 168.07 13.01 167.76 13.16C167.45 13.31 167.09 13.38 166.68 13.38C166.26 13.38 165.90 13.30 165.58 13.13C165.26 12.96 164.96 12.70 164.70 12.29L164.70 8.64C164.99 8.20 165.31 7.87 165.69 7.63C166.07 7.39 166.49 7.28 166.95 7.28C167.66 7.28 168.21 7.52 168.59 8.01C168.97 8.50 169.16 9.25 169.16 10.29C169.16 10.75 169.12 11.17 169.01 11.55ZM183.81 7.63C183.33 7.04 182.66 6.73 181.80 6.73C181.29 6.73 180.84 6.86 180.42 7.11C180.01 7.36 179.65 7.69 179.34 8.11L179.27 7.03C179.27 6.96 179.26 6.92 179.21 6.89C179.17 6.86 179.12 6.86 179.06 6.86L178.70 6.86L177.69 6.86L177.69 7.13C177.69 7.28 177.79 7.36 177.97 7.38L178.04 7.38C178.07 7.38 178.11 7.39 178.15 7.39L178.36 7.39C178.46 7.39 178.57 7.41 178.70 7.41L178.70 15.72C178.54 15.72 178.40 15.75 178.29 15.75L178.05 15.75L177.97 15.75C177.79 15.76 177.69 15.85 177.69 16.00L177.69 16.28L178.70 16.28L179.37 16.28L180.38 16.28L180.38 16.00C180.38 15.85 180.28 15.76 180.10 15.75L180.03 15.75L179.91 15.75C179.87 15.75 179.80 15.74 179.70 15.74C179.61 15.74 179.49 15.72 179.37 15.72L179.37 12.88C179.62 13.22 179.91 13.48 180.26 13.65C180.61 13.82 181.02 13.90 181.50 13.90C181.99 13.90 182.41 13.80 182.78 13.62C183.16 13.44 183.48 13.19 183.74 12.87C183.99 12.54 184.20 12.15 184.32 11.72C184.46 11.28 184.52 10.79 184.52 10.29C184.52 9.10 184.28 8.22 183.81 7.63ZM183.68 11.55C183.58 11.93 183.41 12.25 183.20 12.53C182.99 12.81 182.74 13.01 182.43 13.16C182.13 13.31 181.76 13.38 181.36 13.38C180.94 13.38 180.57 13.30 180.25 13.13C179.93 12.96 179.63 12.70 179.37 12.29L179.37 8.64C179.66 8.20 179.98 7.87 180.36 7.63C180.74 7.39 181.16 7.28 181.62 7.28C182.34 7.28 182.88 7.52 183.26 8.01C183.64 8.50 183.83 9.25 183.83 10.29C183.83 10.75 183.79 11.17 183.68 11.55ZM197.32 11.06C197.20 10.86 197.06 10.71 196.88 10.57C196.70 10.43 196.49 10.32 196.27 10.23C196.04 10.15 195.79 10.05 195.55 9.98C195.31 9.91 195.08 9.83 194.84 9.76C194.61 9.69 194.40 9.59 194.22 9.49C194.04 9.39 193.90 9.27 193.79 9.13C193.68 8.99 193.62 8.81 193.62 8.58C193.62 8.40 193.65 8.23 193.73 8.08C193.82 7.92 193.93 7.77 194.08 7.64C194.22 7.52 194.40 7.43 194.61 7.36C194.82 7.29 195.05 7.25 195.30 7.25C195.66 7.25 196.03 7.31 196.41 7.43C196.42 7.60 196.43 7.77 196.45 7.92C196.46 8.08 196.46 8.19 196.48 8.27C196.49 8.36 196.49 8.43 196.49 8.44C196.50 8.67 196.60 8.78 196.80 8.78L197.13 8.78L197.13 7.11C196.41 6.86 195.79 6.75 195.29 6.75C194.94 6.75 194.61 6.80 194.33 6.90C194.05 7.00 193.80 7.14 193.61 7.31C193.41 7.48 193.26 7.69 193.14 7.91C193.03 8.13 192.99 8.37 192.99 8.62C192.99 8.92 193.05 9.16 193.16 9.35C193.27 9.55 193.41 9.70 193.59 9.84C193.77 9.98 193.97 10.09 194.21 10.18C194.43 10.26 194.67 10.35 194.92 10.42C195.16 10.49 195.40 10.57 195.64 10.64C195.86 10.71 196.07 10.81 196.25 10.92C196.43 11.03 196.59 11.16 196.70 11.31C196.81 11.47 196.87 11.65 196.87 11.89C196.87 12.10 196.83 12.29 196.76 12.49C196.67 12.68 196.56 12.84 196.41 12.98C196.25 13.12 196.07 13.23 195.85 13.31C195.62 13.40 195.37 13.44 195.08 13.44C194.54 13.44 194.10 13.37 193.72 13.22C193.70 13.03 193.69 12.87 193.68 12.71C193.66 12.56 193.66 12.43 193.65 12.35C193.63 12.26 193.63 12.19 193.63 12.18C193.62 11.96 193.52 11.84 193.33 11.84L192.99 11.84L192.99 13.54C193.66 13.79 194.35 13.93 195.05 13.93C195.44 13.93 195.78 13.87 196.08 13.76C196.39 13.65 196.64 13.50 196.85 13.30C197.06 13.10 197.22 12.89 197.33 12.63C197.44 12.36 197.50 12.08 197.50 11.77C197.50 11.49 197.43 11.26 197.32 11.06ZM225.37 8.86C225.37 8.11 225.25 7.41 225.02 6.79C224.80 6.17 224.49 5.64 224.07 5.19C223.65 4.75 223.15 4.40 222.57 4.16C222.00 3.92 221.35 3.79 220.65 3.79C219.95 3.79 219.31 3.92 218.74 4.16C218.16 4.40 217.66 4.75 217.24 5.19C216.82 5.64 216.50 6.17 216.27 6.79C216.05 7.41 215.92 8.11 215.92 8.86C215.92 9.63 216.05 10.33 216.27 10.95C216.50 11.56 216.82 12.10 217.24 12.54C217.66 12.99 218.16 13.33 218.74 13.57C219.31 13.80 219.95 13.93 220.65 13.93C221.02 13.93 221.37 13.89 221.69 13.82C222.01 13.75 222.32 13.68 222.61 13.55L224.73 15.83C224.78 15.90 224.85 15.93 224.92 15.96C224.99 15.99 225.08 16.00 225.18 16.00L225.78 16.00L223.20 13.24C223.54 13.03 223.85 12.78 224.11 12.49C224.38 12.19 224.62 11.86 224.80 11.49C224.98 11.13 225.12 10.72 225.22 10.28C225.32 9.83 225.37 9.37 225.37 8.86ZM224.63 8.86C224.63 9.56 224.55 10.18 224.35 10.72C224.15 11.27 223.89 11.75 223.54 12.12C223.19 12.50 222.77 12.81 222.28 13.01C221.79 13.20 221.26 13.30 220.65 13.30C220.07 13.30 219.52 13.20 219.03 13.01C218.54 12.81 218.12 12.50 217.77 12.12C217.42 11.75 217.15 11.27 216.96 10.72C216.76 10.18 216.66 9.56 216.66 8.86C216.66 8.18 216.76 7.55 216.96 7.00C217.15 6.45 217.42 5.98 217.77 5.60C218.12 5.22 218.54 4.91 219.03 4.72C219.52 4.52 220.07 4.41 220.65 4.41C221.26 4.41 221.79 4.52 222.28 4.72C222.77 4.91 223.19 5.22 223.54 5.60C223.89 5.98 224.15 6.45 224.35 7.00C224.55 7.55 224.63 8.18 224.63 8.86ZM240.55 13.29L240.48 13.29L240.37 13.29C240.32 13.29 240.25 13.27 240.16 13.27C240.06 13.27 239.95 13.26 239.82 13.26L239.82 6.85L239.15 6.86L238.14 6.86L238.14 7.13C238.14 7.28 238.24 7.36 238.42 7.38L238.49 7.38C238.52 7.38 238.56 7.39 238.60 7.39L238.81 7.39C238.91 7.39 239.02 7.41 239.15 7.41L239.15 12.08C238.84 12.49 238.48 12.81 238.08 13.05C237.69 13.27 237.27 13.40 236.82 13.40C236.21 13.40 235.75 13.20 235.45 12.84C235.16 12.46 235.00 11.96 235.00 11.30L235.00 6.85L234.33 6.86L233.32 6.86L233.32 7.13C233.32 7.28 233.42 7.36 233.60 7.38L233.67 7.38C233.70 7.38 233.74 7.39 233.79 7.39L234.00 7.39C234.09 7.39 234.21 7.41 234.33 7.41L234.33 11.30C234.33 11.70 234.39 12.07 234.49 12.39C234.58 12.71 234.72 12.99 234.92 13.22C235.12 13.44 235.34 13.62 235.63 13.75C235.93 13.87 236.26 13.93 236.66 13.93C237.17 13.93 237.65 13.80 238.07 13.57C238.49 13.33 238.87 13.01 239.19 12.60L239.25 13.64C239.25 13.76 239.33 13.82 239.46 13.82L239.82 13.82L240.83 13.82L240.83 13.54C240.83 13.38 240.73 13.30 240.55 13.29ZM250.03 4.89C250.08 4.94 250.15 4.98 250.22 5.01C250.29 5.04 250.38 5.07 250.46 5.07C250.54 5.07 250.63 5.04 250.70 5.01C250.77 4.98 250.84 4.94 250.89 4.89C250.95 4.83 251.01 4.76 251.03 4.69C251.06 4.62 251.09 4.54 251.09 4.45C251.09 4.37 251.06 4.30 251.03 4.21C251.01 4.14 250.95 4.07 250.89 4.02C250.84 3.96 250.77 3.91 250.70 3.88C250.63 3.85 250.54 3.84 250.46 3.84C250.38 3.84 250.29 3.85 250.22 3.88C250.15 3.91 250.08 3.96 250.03 4.02C249.97 4.07 249.93 4.14 249.90 4.21C249.87 4.28 249.84 4.37 249.84 4.45C249.84 4.54 249.87 4.62 249.90 4.69C249.93 4.76 249.97 4.83 250.03 4.89ZM251.52 13.29L251.45 13.29L251.34 13.29C251.30 13.29 251.23 13.27 251.13 13.27C251.03 13.27 250.92 13.26 250.80 13.26L250.80 6.85L250.12 6.85L249.12 6.85L249.12 7.13C249.12 7.28 249.21 7.36 249.40 7.38L249.47 7.38C249.49 7.38 249.54 7.39 249.58 7.39L249.79 7.39C249.89 7.39 250.00 7.41 250.12 7.41L250.12 13.26C249.97 13.26 249.83 13.29 249.72 13.29L249.48 13.29L249.40 13.29C249.21 13.30 249.12 13.38 249.12 13.54L249.12 13.82L250.12 13.82L250.80 13.82L251.80 13.82L251.80 13.54C251.80 13.38 251.71 13.30 251.52 13.29ZM265.09 12.70C265.06 12.66 265.01 12.63 264.95 12.63C264.89 12.63 264.84 12.66 264.75 12.74C264.67 12.82 264.54 12.91 264.40 13.01C264.26 13.10 264.07 13.17 263.84 13.26C263.62 13.34 263.33 13.38 262.99 13.38C262.63 13.38 262.29 13.31 262.00 13.17C261.70 13.03 261.45 12.85 261.24 12.59C261.03 12.33 260.86 12.01 260.75 11.63C260.64 11.26 260.58 10.82 260.58 10.33C260.58 9.86 260.64 9.44 260.75 9.06C260.86 8.68 261.03 8.36 261.24 8.09C261.45 7.83 261.72 7.62 262.02 7.48C262.33 7.34 262.68 7.27 263.09 7.27C263.44 7.27 263.83 7.35 264.28 7.50C264.29 7.69 264.29 7.87 264.31 8.04C264.32 8.20 264.33 8.33 264.35 8.43C264.36 8.53 264.36 8.58 264.36 8.60C264.38 8.82 264.47 8.93 264.67 8.93L265.01 8.93L265.01 7.18L264.64 7.07C264.40 7.00 264.11 6.92 263.79 6.85C263.47 6.78 263.21 6.75 263.05 6.75C262.54 6.75 262.11 6.82 261.72 7.00C261.32 7.18 260.99 7.42 260.72 7.74C260.46 8.06 260.26 8.44 260.12 8.88C259.98 9.31 259.90 9.80 259.90 10.33C259.90 10.89 259.97 11.40 260.12 11.84C260.26 12.29 260.47 12.66 260.74 12.96C261.00 13.27 261.32 13.51 261.69 13.66C262.05 13.83 262.44 13.92 262.89 13.92C263.16 13.92 263.41 13.89 263.65 13.83C263.89 13.78 264.11 13.72 264.32 13.64C264.53 13.55 264.70 13.44 264.87 13.31C265.03 13.19 265.16 13.06 265.27 12.92ZM279.86 13.29L279.79 13.29L279.72 13.29L279.57 13.29C279.50 13.29 279.41 13.27 279.33 13.27L276.60 10.30C276.54 10.25 276.50 10.19 276.44 10.14C276.39 10.08 276.32 10.05 276.25 10.01C276.30 9.98 276.35 9.94 276.39 9.90C276.43 9.86 276.49 9.81 276.53 9.77L279.02 7.41C279.10 7.41 279.17 7.39 279.24 7.39C279.31 7.39 279.37 7.38 279.43 7.38L279.52 7.38C279.71 7.36 279.79 7.28 279.79 7.13L279.79 6.85L279.06 6.85L278.78 6.85L277.63 6.85L277.63 7.13C277.63 7.28 277.73 7.36 277.91 7.38C277.93 7.38 278.04 7.38 278.26 7.39L275.86 9.69C275.79 9.76 275.72 9.80 275.66 9.81C275.60 9.83 275.55 9.84 275.48 9.84L275.16 9.84L275.16 3.64L274.48 3.64L273.48 3.64L273.48 3.91C273.48 4.06 273.57 4.14 273.76 4.16L273.83 4.16C273.85 4.16 273.90 4.17 273.94 4.17L274.15 4.17C274.25 4.17 274.36 4.19 274.48 4.19L274.48 13.26C274.33 13.26 274.19 13.29 274.08 13.29L273.84 13.29L273.76 13.29C273.57 13.30 273.48 13.38 273.48 13.54L273.48 13.82L274.48 13.82L275.16 13.82L276.16 13.82L276.16 13.54C276.16 13.38 276.07 13.30 275.88 13.29L275.81 13.29L275.70 13.29C275.66 13.29 275.59 13.27 275.49 13.27C275.39 13.27 275.28 13.26 275.16 13.26L275.16 10.30L275.46 10.30C275.60 10.30 275.70 10.32 275.77 10.35C275.84 10.37 275.91 10.44 276.00 10.53L278.92 13.65C278.98 13.71 279.02 13.75 279.08 13.78C279.13 13.80 279.17 13.82 279.24 13.82L279.29 13.82L279.83 13.82L280.14 13.82L280.14 13.54C280.14 13.38 280.04 13.30 279.86 13.29ZM290.95 6.73C290.46 6.73 290.01 6.83 289.62 7.00C289.23 7.17 288.90 7.41 288.64 7.71C288.37 8.02 288.16 8.39 288.02 8.81C287.88 9.23 287.80 9.69 287.80 10.19C287.80 10.78 287.88 11.31 288.04 11.77C288.19 12.24 288.40 12.61 288.68 12.94C288.96 13.26 289.30 13.50 289.69 13.66C290.08 13.83 290.51 13.90 290.99 13.90C291.26 13.90 291.52 13.89 291.77 13.83C292.03 13.78 292.28 13.71 292.50 13.62C292.73 13.54 292.94 13.44 293.12 13.31C293.30 13.19 293.45 13.06 293.57 12.92L293.38 12.70C293.36 12.66 293.30 12.63 293.24 12.63C293.20 12.63 293.12 12.66 293.02 12.74C292.92 12.82 292.78 12.91 292.60 13.01C292.43 13.10 292.21 13.17 291.96 13.26C291.70 13.34 291.40 13.38 291.05 13.38C290.65 13.38 290.30 13.31 289.98 13.17C289.66 13.03 289.39 12.84 289.17 12.57C288.95 12.31 288.78 11.97 288.65 11.58C288.53 11.19 288.47 10.71 288.47 10.19L288.47 10.07L293.50 10.07C293.57 10.07 293.61 10.05 293.64 10.01C293.66 9.97 293.69 9.90 293.69 9.80C293.69 9.31 293.62 8.88 293.48 8.50C293.34 8.12 293.16 7.78 292.91 7.53C292.67 7.28 292.38 7.08 292.04 6.94C291.70 6.80 291.34 6.73 290.95 6.73ZM290.96 7.24C291.28 7.24 291.56 7.29 291.83 7.41C292.10 7.52 292.32 7.67 292.50 7.88C292.68 8.09 292.84 8.33 292.94 8.62C293.03 8.92 293.09 9.25 293.09 9.63L288.50 9.63C288.54 9.27 288.62 8.93 288.75 8.64C288.88 8.34 289.04 8.09 289.25 7.88C289.46 7.67 289.72 7.52 290.00 7.41C290.28 7.29 290.60 7.24 290.96 7.24ZM306.45 6.80C306.26 6.76 306.08 6.73 305.87 6.73C305.33 6.73 304.86 6.89 304.49 7.21C304.11 7.53 303.81 7.98 303.59 8.54L303.53 7.07C303.53 6.99 303.51 6.93 303.48 6.90C303.45 6.87 303.39 6.86 303.31 6.86L302.96 6.86L302.96 6.86L301.95 6.86L301.95 7.13C301.95 7.31 302.05 7.36 302.22 7.38C302.30 7.38 302.39 7.38 302.96 7.41L302.96 13.26C302.39 13.29 302.30 13.29 302.22 13.29C302.05 13.30 301.95 13.36 301.95 13.54L301.95 13.82L302.96 13.82L303.62 13.82L303.62 13.82L304.63 13.82L304.63 13.54C304.63 13.36 304.53 13.30 304.36 13.29C304.28 13.29 304.19 13.29 303.62 13.26L303.62 9.30C303.83 8.68 304.11 8.20 304.44 7.88C304.78 7.56 305.21 7.39 305.75 7.39C305.89 7.39 306.01 7.41 306.12 7.42C306.24 7.43 306.35 7.45 306.42 7.48C306.50 7.50 306.54 7.53 306.60 7.55C306.66 7.56 306.70 7.57 306.73 7.57C306.81 7.57 306.85 7.53 306.87 7.46L306.95 7.00C306.80 6.92 306.63 6.85 306.45 6.80Z"></path></g></svg>